 <!DOCTYPE svg PUBLIC "-//W3C//DTD SVG 1.1//EN" "http://www.w3.org/Graphics/SVG/1.1/DTD/svg11.dtd">
<svg xmlns="http://www.w3.org/2000/svg" xmlns:xlink="http://www.w3.org/1999/xlink" id="a" viewBox="0 0 865.76 682.89">
  <defs>
    <clipPath id="b">
      <path d="M497.32,82.84V253.03c0,1.6-1.38,2.91-3.06,2.91H58.67c-1.68,0-3.05-1.31-3.05-2.91V82.85H497.32Z" fill="none"/>
    </clipPath>
  <style xmlns="http://www.w3.org/1999/xhtml">*, ::after, ::before { box-sizing: border-box; }
img, svg { vertical-align: middle; }
</style>
<style xmlns="http://www.w3.org/1999/xhtml">*, body, html { -webkit-font-smoothing: antialiased; }
img, svg { max-width: 100%; }
</style>
</defs>
  <path d="M847.19,285.37c-.99-46.74-28.18-91.81-69.59-126.61-24.22-20.37-53.37-38.21-85.2-52.1-33.02-14.38-68.92-30.57-108.78-33.04-9.9-.74-19.86-.19-29.63,1.63-37.15,7.48,36.38,34.13,46,38.03-102.79-29.67-209.17-59.83-321.54-56.99-21.66,.55-44.13,2.53-63.18,10.64-19.05,8.11-33.78,23.76-30.94,39.28,2.4,12.82,15.17,27.16,3.14,37.15-3.44,2.88-8.33,4.57-13.11,5.99-24.58,7.55-51.11,11.5-74.4,21.12-36.05,14.87-60.66,42.2-72.06,70.95-11.4,28.75-10.86,58.97-6.39,88.22,8.39,55.06,31.34,109.66,77.71,152.48,66.23,61.12,174.8,92.28,283.55,97.42,131.6,6.21,274.28-26.37,361.3-101.61,12.91-11.17,24.74-23.54,29.43-37.55,4.7-14.01,.97-29.96-13.47-39.15-3.89-2.48-8.9-5.11-8.48-8.95,.58-5.21,9.84-6.96,16.9-8.07,46.32-7.19,72.82-45.1,77.59-79.2,.91-6.5,1.3-13.07,1.16-19.63Z" fill="#35d087" data-primary="true"/>
  <g opacity=".8">
    <path d="M847.19,285.37c-.99-46.74-28.18-91.81-69.59-126.61-24.22-20.37-53.37-38.21-85.2-52.1-33.02-14.38-68.92-30.57-108.78-33.04-9.9-.74-19.86-.19-29.63,1.63-37.15,7.48,36.38,34.13,46,38.03-102.79-29.67-209.17-59.83-321.54-56.99-21.66,.55-44.13,2.53-63.18,10.64-19.05,8.11-33.78,23.76-30.94,39.28,2.4,12.82,15.17,27.16,3.14,37.15-3.44,2.88-8.33,4.57-13.11,5.99-24.58,7.55-51.11,11.5-74.4,21.12-36.05,14.87-60.66,42.2-72.06,70.95-11.4,28.75-10.86,58.97-6.39,88.22,8.39,55.06,31.34,109.66,77.71,152.48,66.23,61.12,174.8,92.28,283.55,97.42,131.6,6.21,274.28-26.37,361.3-101.61,12.91-11.17,24.74-23.54,29.43-37.55,4.7-14.01,.97-29.96-13.47-39.15-3.89-2.48-8.9-5.11-8.48-8.95,.58-5.21,9.84-6.96,16.9-8.07,46.32-7.19,72.82-45.1,77.59-79.2,.91-6.5,1.3-13.07,1.16-19.63Z" fill="#fff"/>
  </g>
  <g>
    <g>
      <path d="M493.15,35.19H61.78c-5.36,0-9.71,4.26-9.71,9.53V253.03c0,4.12,3.41,7.46,7.61,7.46H495.25c4.21,0,7.62-3.34,7.62-7.46V44.71c0-5.25-4.34-9.51-9.72-9.51Z" fill="#35d087" data-primary="true"/>
      <path d="M495.25,260.99H59.67c-4.47,0-8.11-3.57-8.11-7.96V44.72c0-5.53,4.58-10.03,10.21-10.03H493.15c2.73,0,5.3,1.04,7.23,2.93,1.93,1.89,2.99,4.41,2.99,7.08V253.03c0,4.39-3.64,7.96-8.12,7.96ZM61.78,35.69c-5.08,0-9.21,4.05-9.21,9.03V253.03c0,3.84,3.19,6.96,7.11,6.96H495.25c3.92,0,7.12-3.12,7.12-6.96V44.71c0-2.41-.95-4.67-2.69-6.37-1.74-1.71-4.06-2.65-6.53-2.65H61.78Z" fill="#2f2e41" data-secondary="true"/>
    </g>
    <g>
      <path d="M498.32,82.84V253.03c0,1.6-1.38,2.91-3.06,2.91H59.67c-1.68,0-3.05-1.31-3.05-2.91V82.85H498.32Z" fill="#fff"/>
      <path d="M495.26,256.44H59.67c-1.96,0-3.55-1.53-3.55-3.41V82.35H498.82s0,170.68,0,170.68c0,1.88-1.6,3.41-3.56,3.41ZM57.12,83.35V253.03c0,1.33,1.15,2.41,2.55,2.41H495.26c1.41,0,2.56-1.08,2.56-2.41V83.34H57.12Z" fill="#2f2e41" data-secondary="true"/>
    </g>
    <g clip-path="url(#b)">
      <path d="M546.54,42.66v6.31h-26.35v-6.31c0-.45-.37-.81-.81-.81-.45,0-.81,.36-.81,.81v6.31h-25.75v-6.31c0-.45-.37-.82-.82-.82s-.82,.37-.82,.82v6.31h-25.73v-6.31c0-.45-.37-.82-.82-.82s-.82,.37-.82,.82v6.31h-25.73v-6.31c-.02-.45-.41-.79-.86-.77-.42,.02-.75,.35-.77,.77v6.31h-25.75v-6.31c0-.45-.37-.81-.81-.81-.45,0-.81,.36-.81,.81v6.31h-25.75v-6.31c-.02-.45-.41-.79-.86-.77-.42,.02-.75,.35-.77,.77v6.31h-25.75v-6.31c0-.45-.37-.81-.81-.81-.45,0-.81,.36-.81,.81v6.31h-25.74v-6.31c0-.45-.37-.82-.82-.82s-.82,.37-.82,.82v6.31h-25.74v-6.31c0-.44-.37-.8-.81-.79h0c-.44,0-.81,.35-.81,.79,0,0,0,0,0,0v6.31h-25.75v-6.31c0-.45-.37-.81-.81-.81-.45,0-.81,.36-.81,.81v6.31h-26.35v-6.31c0-.45-.37-.82-.82-.82s-.82,.37-.82,.82v6.31h-25.74v-6.31c0-.45-.37-.81-.81-.81-.45,0-.81,.36-.81,.81v6.31h-25.74v-6.31c0-.45-.37-.81-.81-.81-.45,0-.81,.36-.81,.81v6.31h-25.75v-6.31c0-.45-.37-.81-.81-.81-.45,0-.81,.36-.81,.81v6.31h-25.75v-6.31c0-.45-.36-.81-.81-.81s-.81,.36-.81,.81v6.31h-25.75v-6.31c0-.45-.36-.81-.81-.81s-.81,.36-.81,.81v6.31h-25.75v-6.31c-.02-.45-.41-.79-.85-.77-.41,.02-.74,.35-.77,.77v6.31h-25.74v-6.31c0-.45-.36-.81-.81-.81s-.81,.36-.81,.81v6.31H26.91v-6.31c0-.45-.36-.81-.81-.81s-.81,.36-.81,.81v6.31H15.63c-.44-.02-.81,.31-.83,.75s.31,.81,.75,.83c.03,0,.06,0,.09,0h9.66v27.99H15.63c-.44,0-.79,.35-.79,.79s.35,.79,.79,.79h9.66v28H15.63c-.44-.02-.81,.31-.83,.75s.31,.81,.75,.83c.03,0,.06,0,.09,0h9.66v27.99H15.63c-.44-.02-.81,.31-.83,.75s.31,.81,.75,.83c.03,0,.06,0,.09,0h9.66v25.19H15.63c-.44-.02-.81,.31-.83,.75s.31,.81,.75,.83c.03,0,.06,0,.09,0h9.66v27.99H15.63c-.44-.02-.81,.31-.83,.75-.02,.44,.31,.81,.75,.83,.03,0,.06,0,.09,0h9.66v28H15.63c-.44,0-.79,.35-.79,.79,0,.44,.35,.79,.79,.79h9.66v28H15.63c-.44,0-.8,.35-.81,.79h0c0,.44,.37,.79,.81,.79h9.66v27.99H15.63c-.44-.02-.81,.31-.83,.75-.02,.44,.31,.81,.75,.83,.03,0,.06,0,.09,0h9.66v28H15.63c-.44-.02-.81,.31-.83,.75-.02,.44,.31,.81,.75,.83,.03,0,.06,0,.09,0h9.66v27.99H15.63c-.44-.02-.81,.31-.83,.75-.02,.44,.31,.81,.75,.83,.03,0,.06,0,.09,0H546.54l.81-301.61c-.44,0-.8,.35-.81,.79ZM52.66,341.9H26.91v-27.99h25.75v27.99Zm0-29.57H26.91v-28h25.75v28Zm0-48.65v19.07H26.91v-27.99h25.75v8.92Zm0-16.81v6.31H26.91v-28h25.75v21.69Zm0-23.27H26.91v-28h25.75v28Zm0-29.58H26.91v-27.99h25.75v27.99Zm0-34.69v5.12H26.91v-25.19h25.75v20.08Zm0-21.65H26.91v-27.99h25.75v27.99Zm0-29.57H26.91v-28h25.75v28Zm0-29.57H26.91v-28h25.75v28Zm27.36,263.36h-25.74v-27.99h25.74v27.99Zm0-29.57h-25.74v-28h25.74v28Zm0-48.65v19.07h-25.74v-27.99h25.74v8.92Zm0-16.81v6.31h-25.74v-28h25.74v21.69Zm0-23.27h-25.74v-28h25.74v28Zm0-29.58h-25.74v-27.99h25.74v27.99Zm0-34.69v5.12h-25.74v-25.19h25.74v20.08Zm0-21.65h-25.74v-27.99h25.74v27.99Zm0-29.57h-25.74v-28h25.74v28Zm0-29.57h-25.74v-28h25.74v28Zm27.36,263.36h-25.74v-27.99h25.75v27.99Zm-.01-29.57h-25.74v-28h25.75v28Zm-.01-48.65v19.07h-25.74v-27.99h25.75v8.92Zm-.01-16.81v6.31h-25.74v-28h25.75v21.69Zm-.01-23.27h-25.74v-28h25.75v28Zm-.01-29.58h-25.74v-27.99h25.75v27.99Zm-.01-34.69v5.12h-25.74v-25.19h25.75v20.08Zm-.01-21.65h-25.74v-27.99h25.75v27.99Zm-.01-29.57h-25.74v-28h25.75v28Zm-.01-29.57h-25.74v-28h25.75v28Zm27.35,263.36h-25.73v-27.99h25.75l-.02,27.99Zm0-29.57h-25.73v-28h25.75l-.02,28Zm0-48.65v19.07h-25.73v-27.99h25.75l-.02,8.92Zm0-16.81v6.31h-25.73v-28h25.75l-.02,21.69Zm0-23.27h-25.73v-28h25.75l-.02,28Zm0-29.58h-25.73v-27.99h25.75l-.02,27.99Zm0-34.69v5.12h-25.73v-25.19h25.75l-.02,20.08Zm0-21.65h-25.73v-27.99h25.75l-.02,27.99Zm0-29.57h-25.73v-28h25.75l-.02,28Zm0-29.57h-25.73v-28h25.75l-.02,28Zm27.36,263.36h-25.75v-27.99h25.75v27.99Zm0-29.57h-25.75v-28h25.75v28Zm0-48.65v19.07h-25.75v-27.99h25.75v8.92Zm0-16.81v6.31h-25.75v-28h25.75v21.69Zm0-23.27h-25.75v-28h25.75v28Zm0-29.58h-25.75v-27.99h25.75v27.99Zm0-34.69v5.12h-25.75v-25.19h25.75v20.08Zm0-21.65h-25.75v-27.99h25.75v27.99Zm0-29.57h-25.75v-28h25.75v28Zm0-29.57h-25.75v-28h25.75v28Zm27.36,263.36h-25.71v-27.99h25.75l-.04,27.99Zm0-29.57h-25.71v-28h25.75l-.04,28Zm0-48.65v19.07h-25.71v-27.99h25.75l-.04,8.92Zm0-16.81v6.31h-25.71v-28h25.75l-.04,21.69Zm0-23.27h-25.71v-28h25.75l-.04,28Zm0-29.58h-25.71v-27.99h25.75l-.04,27.99Zm0-34.69v5.12h-25.71v-25.19h25.75l-.04,20.08Zm0-21.65h-25.71v-27.99h25.75l-.04,27.99Zm0-29.57h-25.71v-28h25.75l-.04,28Zm0-29.57h-25.71v-28h25.75l-.04,28Zm27.36,263.36h-25.7v-27.99h25.75l-.04,27.99Zm0-29.57h-25.7v-28h25.75l-.04,28Zm0-48.65v19.07h-25.7v-27.99h25.75l-.04,8.92Zm0-16.81v6.31h-25.7v-28h25.75l-.04,21.69Zm0-23.27h-25.7v-28h25.75l-.04,28Zm0-29.58h-25.7v-27.99h25.75l-.04,27.99Zm0-34.69v5.12h-25.7v-25.19h25.75l-.04,20.08Zm0-21.65h-25.7v-27.99h25.75l-.04,27.99Zm0-29.57h-25.7v-28h25.75l-.04,28Zm0-29.57h-25.7v-28h25.75l-.04,28Zm27.36,263.36h-25.7v-27.99h25.74l-.04,27.99Zm0-29.57h-25.7v-28h25.74l-.04,28Zm0-48.65v19.07h-25.7v-27.99h25.74l-.04,8.92Zm0-16.81v6.31h-25.7v-28h25.74l-.04,21.69Zm0-23.27h-25.7v-28h25.74l-.04,28Zm0-29.58h-25.7v-27.99h25.74l-.04,27.99Zm0-34.69v5.12h-25.7v-25.19h25.74l-.04,20.08Zm0-21.65h-25.7v-27.99h25.74l-.04,27.99Zm0-29.57h-25.7v-28h25.74l-.04,28Zm0-29.57h-25.7v-28h25.74l-.04,28Zm27.98,263.36h-26.3v-27.99h26.36l-.05,27.99Zm0-29.57h-26.3v-28h26.36l-.05,28Zm0-48.65v19.07h-26.3v-27.99h26.36l-.05,8.92Zm0-16.81v6.31h-26.3v-28h26.36l-.05,21.69Zm0-23.27h-26.3v-28h26.36l-.05,28Zm0-29.58h-26.3v-27.99h26.36l-.05,27.99Zm0-34.69v5.12h-26.3v-25.19h26.36l-.05,20.08Zm0-21.65h-26.3v-27.99h26.36l-.05,27.99Zm0-29.57h-26.3v-28h26.36l-.05,28Zm0-29.57h-26.3v-28h26.36l-.05,28Zm27.36,263.36h-25.7v-27.99h25.75l-.05,27.99Zm0-29.57h-25.7v-28h25.75l-.05,28Zm0-48.65v19.07h-25.7v-27.99h25.75l-.05,8.92Zm0-16.81v6.31h-25.7v-28h25.75l-.05,21.69Zm0-23.27h-25.7v-28h25.75l-.05,28Zm0-29.58h-25.7v-27.99h25.75l-.05,27.99Zm0-34.69v5.12h-25.7v-25.19h25.75l-.05,20.08Zm0-21.65h-25.7v-27.99h25.75l-.05,27.99Zm0-29.57h-25.7v-28h25.75l-.05,28Zm0-29.57h-25.7v-28h25.75l-.05,28Zm27.36,263.36h-25.69v-27.99h25.75l-.06,27.99Zm0-29.57h-25.69v-28h25.75l-.06,28Zm0-48.65v19.07h-25.69v-27.99h25.75l-.06,8.92Zm0-16.81v6.31h-25.69v-28h25.75l-.06,21.69Zm0-23.27h-25.69v-28h25.75l-.06,28Zm0-29.58h-25.69v-27.99h25.75l-.06,27.99Zm0-34.69v5.12h-25.69v-25.19h25.75l-.06,20.08Zm0-21.65h-25.69v-27.99h25.75l-.06,27.99Zm0-29.57h-25.69v-28h25.75l-.06,28Zm0-29.57h-25.69v-28h25.75l-.06,28Zm27.36,263.36h-25.68v-27.99h25.74l-.07,27.99Zm0-29.57h-25.68v-28h25.74l-.07,28Zm0-48.65v19.07h-25.68v-27.99h25.74l-.07,8.92Zm0-16.81v6.31h-25.68v-28h25.74l-.07,21.69Zm0-23.27h-25.68v-28h25.74l-.07,28Zm0-29.58h-25.68v-27.99h25.74l-.07,27.99Zm0-34.69v5.12h-25.68v-25.19h25.74l-.07,20.08Zm0-21.65h-25.68v-27.99h25.74l-.07,27.99Zm0-29.57h-25.68v-28h25.74l-.07,28Zm0-29.57h-25.68v-28h25.74l-.07,28Zm27.36,263.36h-25.67v-27.99h25.75l-.07,27.99Zm0-29.57h-25.67v-28h25.75l-.07,28Zm0-48.65v19.07h-25.67v-27.99h25.75l-.07,8.92Zm0-16.81v6.31h-25.67v-28h25.75l-.07,21.69Zm0-23.27h-25.67v-28h25.75l-.07,28Zm0-29.58h-25.67v-27.99h25.75l-.07,27.99Zm0-34.69v5.12h-25.67v-25.19h25.75l-.07,20.08Zm0-21.65h-25.67v-27.99h25.75l-.07,27.99Zm0-29.57h-25.67v-28h25.75l-.07,28Zm0-29.57h-25.67v-28h25.75l-.07,28Zm27.36,263.36h-25.67v-27.99h25.75l-.08,27.99Zm0-29.57h-25.67v-28h25.75l-.08,28Zm0-48.65v19.07h-25.67v-27.99h25.75l-.08,8.92Zm0-16.81v6.31h-25.67v-28h25.75l-.08,21.69Zm0-23.27h-25.67v-28h25.75l-.08,28Zm0-29.58h-25.67v-27.99h25.75l-.08,27.99Zm0-34.69v5.12h-25.67v-25.19h25.75l-.08,20.08Zm0-21.65h-25.67v-27.99h25.75l-.08,27.99Zm0-29.57h-25.67v-28h25.75l-.08,28Zm0-29.57h-25.67v-28h25.75l-.08,28Zm27.36,263.36h-25.66v-27.99h25.75l-.09,27.99Zm0-29.57h-25.66v-28h25.75l-.09,28Zm0-48.65v19.07h-25.66v-27.99h25.75l-.09,8.92Zm0-16.81v6.31h-25.66v-28h25.75l-.09,21.69Zm0-23.27h-25.66v-28h25.75l-.09,28Zm0-29.58h-25.66v-27.99h25.75l-.09,27.99Zm0-34.69v5.12h-25.66v-25.19h25.75l-.09,20.08Zm0-21.65h-25.66v-27.99h25.75l-.09,27.99Zm0-29.57h-25.66v-28h25.75l-.09,28Zm0-29.57h-25.66v-28h25.75l-.09,28Zm27.36,263.36h-25.65v-27.99h25.74l-.1,27.99Zm0-29.57h-25.65v-28h25.74l-.1,28Zm0-48.65v19.07h-25.65v-27.99h25.74l-.1,8.92Zm0-16.81v6.31h-25.65v-28h25.74l-.1,21.69Zm0-23.27h-25.65v-28h25.74l-.1,28Zm0-29.58h-25.65v-27.99h25.74l-.1,27.99Zm0-34.69v5.12h-25.65v-25.19h25.74l-.1,20.08Zm0-21.65h-25.65v-27.99h25.74l-.1,27.99Zm0-29.57h-25.65v-28h25.74l-.1,28Zm0-29.57h-25.65v-28h25.74l-.1,28Zm27.36,263.36h-25.64v-27.99h25.74l-.1,27.99Zm0-29.57h-25.64v-28h25.74l-.1,28Zm0-48.65v19.07h-25.64v-27.99h25.74l-.1,8.92Zm0-16.81v6.31h-25.64v-28h25.74l-.1,21.69Zm0-23.27h-25.64v-28h25.74l-.1,28Zm0-29.58h-25.64v-27.99h25.74l-.1,27.99Zm0-34.69v5.12h-25.64v-25.19h25.74l-.1,20.08Zm0-21.65h-25.64v-27.99h25.74l-.1,27.99Zm0-29.57h-25.64v-28h25.74l-.1,28Zm0-29.57h-25.64v-28h25.74l-.1,28Zm27.36,263.36h-25.64v-27.99h25.75l-.11,27.99Zm0-29.57h-25.64v-28h25.75l-.11,28Zm0-48.65v19.07h-25.64v-27.99h25.75l-.11,8.92Zm0-16.81v6.31h-25.64v-28h25.75l-.11,21.69Zm0-23.27h-25.64v-28h25.75l-.11,28Zm0-29.58h-25.64v-27.99h25.75l-.11,27.99Zm0-34.69v5.12h-25.64v-25.19h25.75l-.11,20.08Zm0-21.65h-25.64v-27.99h25.75l-.11,27.99Zm0-29.57h-25.64v-28h25.75l-.11,28Zm0-29.57h-25.64v-28h25.75l-.11,28Zm27.98,263.36h-26.24v-27.99h26.35l-.11,27.99Zm0-29.57h-26.24v-28h26.35l-.11,28Zm0-48.65v19.07h-26.24v-27.99h26.35l-.11,8.92Zm0-16.81v6.31h-26.24v-28h26.35l-.11,21.69Zm0-23.27h-26.24v-28h26.35l-.11,28Zm0-29.58h-26.24v-27.99h26.35l-.11,27.99Zm0-34.69v5.12h-26.24v-25.19h26.35l-.11,20.08Zm0-21.65h-26.24v-27.99h26.35l-.11,27.99Zm0-29.57h-26.24v-28h26.35l-.11,28Zm0-29.57h-26.24v-28h26.35l-.11,28Z" fill="#f1f2f2"/>
    </g>
    <polygon points="82.64 125.8 78.01 125.78 77.96 118.04 76.28 118.03 76.32 125.77 71.69 125.75 71.72 137.89 76.35 137.92 76.44 144.9 78.12 144.91 78.04 137.93 82.67 137.95 82.64 125.8" fill="#35d087" data-primary="true"/>
    <polygon points="113.37 122.87 108.74 122.85 108.7 117.48 107.02 117.47 107.05 122.84 102.42 122.82 102.61 154.62 107.24 154.64 107.31 166.31 108.99 166.32 108.93 154.65 113.56 154.68 113.37 122.87" fill="#2f2e41" data-secondary="true"/>
    <polygon points="144.36 163.47 139.73 163.45 139.69 157.29 138.01 157.28 138.04 163.44 133.41 163.42 133.52 181.45 138.15 181.47 138.24 197.09 139.93 197.1 139.83 181.48 144.46 181.5 144.36 163.47" fill="#2f2e41" data-secondary="true"/>
    <polygon points="175.04 151.98 170.4 151.96 170.37 145.3 168.68 145.29 168.72 151.95 164.09 151.93 164.31 188.48 168.94 188.5 169.02 202.26 170.7 202.27 170.62 188.51 175.25 188.54 175.04 151.98" fill="#35d087" data-primary="true"/>
    <polygon points="205.86 164.32 201.22 164.3 201.16 153.12 199.48 153.11 199.54 164.29 194.91 164.27 195 180.07 199.63 180.09 199.68 188.26 201.37 188.27 201.32 180.1 205.95 180.13 205.86 164.32" fill="#2f2e41" data-secondary="true"/>
    <polygon points="236.79 196.51 232.16 196.48 232.11 187.24 230.43 187.23 230.48 196.48 225.85 196.45 226.09 237.65 230.73 237.67 230.79 248.64 232.47 248.65 232.41 237.68 237.04 237.7 236.79 196.51" fill="#35d087" data-primary="true"/>
    <g opacity=".3">
      <polygon points="236.79 196.51 232.16 196.48 232.11 187.24 230.43 187.23 230.48 196.48 225.85 196.45 226.09 237.65 230.73 237.67 230.79 248.64 232.47 248.65 232.41 237.68 237.04 237.7 236.79 196.51"/>
    </g>
    <polygon points="267.34 162.33 262.71 162.31 262.66 154.78 260.98 154.78 261.02 162.3 256.39 162.28 256.59 195.96 261.22 195.99 261.28 205.45 262.96 205.46 262.91 196 267.54 196.02 267.34 162.33" fill="#2f2e41" data-secondary="true"/>
    <polygon points="297.93 136.14 293.3 136.12 293.25 127.95 291.57 127.94 291.62 136.11 286.99 136.09 287.14 162.03 291.77 162.05 291.82 170.65 293.5 170.66 293.45 162.06 298.08 162.08 297.93 136.14" fill="#35d087" data-primary="true"/>
    <polygon points="328.42 93.74 323.8 93.71 323.76 87.69 322.07 87.68 322.11 93.7 317.48 93.68 317.75 138.49 322.38 138.52 322.44 149.62 324.13 149.63 324.06 138.53 328.69 138.55 328.42 93.74" fill="#2f2e41" data-secondary="true"/>
    <polygon points="359.26 109.13 354.63 109.11 354.58 99.86 352.89 99.85 352.95 109.1 348.32 109.07 348.46 132.51 353.09 132.53 353.12 137.05 354.8 137.06 354.77 132.54 359.4 132.56 359.26 109.13" fill="#35d087" data-primary="true"/>
    <polygon points="389.97 115.05 385.35 115.02 385.33 112.23 383.65 112.22 383.66 115.01 379.03 114.99 379.25 152.47 383.88 152.5 383.94 161.89 385.62 161.89 385.57 152.5 390.2 152.53 389.97 115.05" fill="#35d087" data-primary="true"/>
    <polygon points="470.66 144.12 475.29 144.09 475.34 135.93 477.02 135.92 476.97 144.09 481.6 144.06 481.45 170.01 476.82 170.03 476.77 178.63 475.09 178.64 475.14 170.04 470.51 170.06 470.66 144.12" fill="#35d087" data-primary="true"/>
    <polygon points="446.28 104.66 450.91 104.64 450.94 98.62 452.63 98.61 452.59 104.63 457.22 104.61 456.96 149.42 452.32 149.44 452.26 160.55 450.58 160.56 450.64 149.45 446.01 149.47 446.28 104.66" fill="#2f2e41" data-secondary="true"/>
    <polygon points="418.38 127.73 423.01 127.71 423.06 118.46 424.75 118.46 424.69 127.7 429.32 127.68 429.19 151.11 424.55 151.13 424.53 155.65 422.84 155.66 422.87 151.14 418.24 151.17 418.38 127.73" fill="#35d087" data-primary="true"/>
    <polygon points="397.6 140.04 402.23 140.02 402.24 137.22 403.93 137.21 403.91 140.01 408.54 139.99 408.32 177.47 403.69 177.49 403.63 186.88 401.95 186.89 402 177.5 397.37 177.52 397.6 140.04" fill="#2f2e41" data-secondary="true"/>
    <g>
      <path d="M128.07,59.51c0-3.7,3-6.7,6.7-6.7s6.7,3,6.7,6.7-3,6.7-6.7,6.7-6.7-3-6.7-6.7h0Z" fill="#2f2e41" data-secondary="true"/>
      <path d="M134.77,66.71c-3.97,0-7.2-3.23-7.2-7.2s3.23-7.2,7.2-7.2,7.2,3.23,7.2,7.2-3.23,7.2-7.2,7.2Zm0-13.4c-3.42,0-6.2,2.78-6.2,6.2s2.78,6.2,6.2,6.2,6.2-2.78,6.2-6.2-2.78-6.2-6.2-6.2Z" fill="#2f2e41" data-secondary="true"/>
    </g>
    <g>
      <path d="M102.28,59.51c0-3.7,3-6.7,6.7-6.7s6.7,3,6.7,6.7-3,6.7-6.7,6.7-6.7-3-6.7-6.7h0Z" fill="#f1f2f2"/>
      <path d="M108.99,66.71c-3.97,0-7.2-3.23-7.2-7.2s3.23-7.2,7.2-7.2,7.2,3.23,7.2,7.2-3.23,7.2-7.2,7.2Zm0-13.4c-3.42,0-6.2,2.78-6.2,6.2s2.78,6.2,6.2,6.2,6.2-2.78,6.2-6.2-2.78-6.2-6.2-6.2Z" fill="#2f2e41" data-secondary="true"/>
    </g>
    <g>
      <path d="M76.5,59.51c0-3.7,3-6.7,6.7-6.7s6.7,3,6.7,6.7-3,6.7-6.7,6.7-6.7-3-6.7-6.7h0Z" fill="#fff"/>
      <path d="M83.2,66.71c-3.97,0-7.2-3.23-7.2-7.2s3.23-7.2,7.2-7.2,7.2,3.23,7.2,7.2-3.23,7.2-7.2,7.2Zm0-13.4c-3.42,0-6.2,2.78-6.2,6.2s2.78,6.2,6.2,6.2,6.2-2.78,6.2-6.2-2.78-6.2-6.2-6.2Z" fill="#2f2e41" data-secondary="true"/>
    </g>
    <polygon points="234.89 129.47 234.94 115.49 228.09 115.46 228.04 129.44 218.81 129.41 231.36 151.33 244.07 129.51 234.89 129.47" fill="#35d087" data-primary="true"/>
    <g opacity=".3">
      <polygon points="234.89 129.47 234.94 115.49 228.09 115.46 228.04 129.44 218.81 129.41 231.36 151.33 244.07 129.51 234.89 129.47"/>
    </g>
    <polygon points="199.91 112.35 199.94 103.81 195.76 103.8 195.72 112.34 190.08 112.32 197.74 125.71 205.51 112.38 199.91 112.35" fill="#35d087" data-primary="true"/>
    <g opacity=".3">
      <polygon points="199.91 112.35 199.94 103.81 195.76 103.8 195.72 112.34 190.08 112.32 197.74 125.71 205.51 112.38 199.91 112.35"/>
    </g>
    <polygon points="258.51 97.46 258.54 88.92 254.36 88.9 254.32 97.44 248.68 97.42 256.34 110.81 264.11 97.48 258.51 97.46" fill="#35d087" data-primary="true"/>
    <g opacity=".3">
      <polygon points="258.51 97.46 258.54 88.92 254.36 88.9 254.32 97.44 248.68 97.42 256.34 110.81 264.11 97.48 258.51 97.46"/>
    </g>
  </g>
  <g>
    <g>
      <rect x="473.49" y="369.68" width="58.88" height="235.33" fill="#e6e7e8"/>
      <path d="M532.87,605.51h-59.88v-236.33h59.88v236.33Zm-58.88-1h57.88v-234.33h-57.88v234.33Z" fill="#2f2e41" data-secondary="true"/>
    </g>
    <g>
      <g>
        <rect x="179.61" y="497.89" width="58.88" height="105.39" fill="#e6e7e8"/>
        <path d="M238.99,603.78h-59.88v-106.39h59.88v106.39Zm-58.88-1h57.88v-104.39h-57.88v104.39Z" fill="#2f2e41" data-secondary="true"/>
      </g>
      <g>
        <rect x="276.17" y="387.09" width="58.88" height="215.39" fill="#e6e7e8"/>
        <path d="M335.55,602.99h-59.88v-216.39h59.88v216.39Zm-58.88-1h57.88v-214.39h-57.88v214.39Z" fill="#2f2e41" data-secondary="true"/>
      </g>
      <g>
        <rect x="170.35" y="500.01" width="58.88" height="103.27" fill="#f1f2f2"/>
        <path d="M229.73,603.78h-59.88v-104.27h59.88v104.27Zm-58.88-1h57.88v-102.27h-57.88v102.27Z" fill="#2f2e41" data-secondary="true"/>
      </g>
      <g>
        <rect x="268.14" y="392.21" width="58.88" height="211.07" fill="#f1f2f2"/>
        <path d="M327.52,603.78h-59.88v-212.07h59.88v212.07Zm-58.88-1h57.88v-210.07h-57.88v210.07Z" fill="#2f2e41" data-secondary="true"/>
      </g>
      <g>
        <rect x="377.84" y="277.76" width="58.88" height="327.25" fill="#e6e7e8"/>
        <path d="M437.22,605.51h-59.88V277.26h59.88v328.25Zm-58.88-1h57.88V278.26h-57.88v326.25Z" fill="#2f2e41" data-secondary="true"/>
      </g>
      <g>
        <rect x="370.08" y="282.6" width="58.88" height="320.67" fill="#f1f2f2"/>
        <path d="M429.46,603.78h-59.88V282.1h59.88v321.67Zm-58.88-1h57.88V283.1h-57.88v319.67Z" fill="#2f2e41" data-secondary="true"/>
      </g>
      <g>
        <rect x="465.73" y="373.17" width="58.88" height="230.6" fill="#f1f2f2"/>
        <path d="M525.11,604.27h-59.88v-231.6h59.88v231.6Zm-58.88-1h57.88v-229.6h-57.88v229.6Z" fill="#2f2e41" data-secondary="true"/>
      </g>
      <g>
        <polygon points="53.53 619.96 149.33 565.29 117.02 560.79 177.87 483.09 379.86 483.09 531.82 293.66 497.15 293.56 366.74 456.08 164.71 456.08 95.75 544.14 83.64 513.84 53.53 619.96" fill="#2f2e41" data-secondary="true"/>
        <path d="M52.71,621l30.84-108.71,12.34,30.86,68.58-87.57h202.03l130.41-162.52,35.95,.1-152.76,190.43H178.11l-60.17,76.83,32.91,4.58-98.14,56.01Zm31-105.61l-29.37,103.53,93.46-53.34-31.72-4.41,61.54-78.58h202l151.16-188.44-33.4-.09-130.41,162.52H164.96l-69.35,88.55-11.89-29.74Z" fill="#2f2e41" data-secondary="true"/>
      </g>
      <g>
        <polygon points="48.11 611.41 143.91 556.74 111.6 552.24 172.45 474.54 374.44 474.54 526.4 285.11 491.73 285.01 361.32 447.53 159.3 447.53 90.33 535.59 78.22 505.29 48.11 611.41" fill="#35d087" data-primary="true"/>
        <path d="M47.3,612.45l30.84-108.7,12.33,30.86,68.58-87.57h202.03l130.41-162.52,35.95,.1-152.76,190.43H172.69l-60.17,76.83,32.91,4.58-98.14,56Zm31-105.61l-29.37,103.53,93.46-53.34-31.72-4.41,61.54-78.58h202l151.16-188.44-33.39-.09-130.41,162.52H159.54l-69.35,88.55-11.89-29.74Z" fill="#2f2e41" data-secondary="true"/>
      </g>
      <g>
        <rect x="154.35" y="602.49" width="381.86" height="8.92" fill="#fff"/>
        <path d="M536.72,611.91H153.85v-9.92h382.86v9.92Zm-381.86-1h380.86v-7.92H154.85v7.92Z" fill="#2f2e41" data-secondary="true"/>
      </g>
    </g>
  </g>
  <g>
    <g>
      <polyline points="783.21 464.84 783.21 595.83 765.79 595.83 765.79 466.24" fill="#fff"/>
      <polygon points="783.71 596.33 765.29 596.33 765.29 466.24 766.29 466.24 766.29 595.33 782.71 595.33 782.71 464.84 783.71 464.84 783.71 596.33" fill="#2f2e41" data-secondary="true"/>
    </g>
    <g>
      <polyline points="694.24 466.3 694.24 597.29 676.83 597.29 676.83 463.32" fill="#fff"/>
      <polygon points="694.74 597.79 676.33 597.79 676.33 463.32 677.33 463.32 677.33 596.79 693.74 596.79 693.74 466.3 694.74 466.3 694.74 597.79" fill="#2f2e41" data-secondary="true"/>
    </g>
    <g>
      <polyline points="806.57 460.87 806.57 622.81 789.13 622.81 789.13 464.14" fill="#fff"/>
      <polygon points="807.07 623.31 788.63 623.31 788.63 464.14 789.63 464.14 789.63 622.31 806.07 622.31 806.07 460.87 807.07 460.87 807.07 623.31" fill="#2f2e41" data-secondary="true"/>
    </g>
    <g>
      <polyline points="681.87 464.51 681.87 622.81 664.43 622.81 664.43 460.49" fill="#fff"/>
      <polygon points="682.37 623.31 663.93 623.31 663.93 460.49 664.93 460.49 664.93 622.31 681.37 622.31 681.37 464.51 682.37 464.51 682.37 623.31" fill="#2f2e41" data-secondary="true"/>
    </g>
    <g>
      <ellipse cx="735.16" cy="445.61" rx="79.48" ry="10.94" fill="#fff"/>
      <path d="M735.16,457.05c-39.32,0-79.98-4.28-79.98-11.44s40.67-11.44,79.98-11.44,79.98,4.28,79.98,11.44-40.67,11.44-79.98,11.44Zm0-21.88c-47.25,0-78.98,5.4-78.98,10.44s31.74,10.44,78.98,10.44,78.98-5.4,78.98-10.44-31.74-10.44-78.98-10.44Z" fill="#2f2e41" data-secondary="true"/>
    </g>
    <path d="M737.2,468c-13.34,0-64.96-.64-81.05-10.29-.14-.08-.23-.23-.24-.4l-.73-11.67c-.02-.28,.19-.51,.47-.53,.27-.01,.51,.19,.53,.47l.71,11.4c18.21,10.6,82.72,10.01,83.37,10,61.96-2,72.71-8.98,73.89-9.93v-11.45c0-.28,.22-.5,.5-.5s.5,.22,.5,.5v11.67c0,.12-.04,.23-.11,.32-.27,.33-7.48,8.22-74.75,10.39-.3,0-1.38,.01-3.08,.01Z" fill="#2f2e41" data-secondary="true"/>
    <g>
      <path d="M740.53,644.71s-.99,3.62-16.3,2.89l-18.23-.73s-7.29,0-10.21-1.46l-.73-6.56v-4.38s13.86-6.56,13.86-6.56l31.61,16.79Z" fill="#fff"/>
      <path d="M728.07,648.2c-1.18,0-2.46-.03-3.86-.1l-18.23-.73c-.28,0-7.42-.02-10.41-1.51l-.24-.12-.76-6.83v-4.75s14.36-6.81,14.36-6.81l32.19,17.1-.1,.39c-.1,.37-1.28,3.36-12.94,3.36Zm-31.81-3.12c2.93,1.28,9.67,1.29,9.74,1.29l18.25,.73c11.58,.55,14.75-1.41,15.55-2.22l-30.9-16.41-13.34,6.32v4.06l.7,6.23Z" fill="#2f2e41" data-secondary="true"/>
    </g>
    <g>
      <path d="M477.67,615.75s59.87-5.34,60.6-5.34c.65,0,13.35,3.44,16.2,4.22l4.22-4.22,21.15,5.1v8.02s-13.86,3.65-25.52,1.46l-2.35-4.22c-4.19,.47-6.91,1.37-8.57,2.14-3.31,1.53-6.8,2.65-10.37,3.37-21.76,4.39-44.74,1.82-50.35,1.08-1.21-.16-2.41-.48-3.5-1.02-6.96-3.44-1.51-10.59-1.51-10.59Z" fill="#fff"/>
      <path d="M505.47,629.29c-10.67,0-19.28-.96-22.85-1.44-1.36-.18-2.59-.54-3.66-1.07-2.02-1-3.25-2.4-3.66-4.16-.81-3.47,1.87-7.04,1.98-7.19l.13-.18,.22-.02c6.13-.55,59.92-5.34,60.65-5.34,.64,0,10.2,2.57,16.05,4.16l4.21-4.21,21.8,5.26v8.8l-.37,.1c-.14,.04-14.1,3.65-25.74,1.47l-.23-.04-2.3-4.14c-4.06,.48-6.63,1.38-8.09,2.06-3.27,1.52-6.8,2.67-10.48,3.41-9.52,1.92-19.23,2.52-27.66,2.52Zm-27.52-13.07c-.5,.72-2.29,3.57-1.68,6.18,.34,1.46,1.4,2.63,3.13,3.49,.97,.48,2.09,.81,3.35,.97,6.36,.84,28.76,3.24,50.18-1.08,3.6-.73,7.05-1.85,10.26-3.33,1.56-.73,4.35-1.69,8.73-2.18l.33-.04,2.39,4.31c10.32,1.86,22.44-.85,24.7-1.4v-7.24l-20.49-4.95-4.23,4.23-.28-.08c-7.56-2.06-15.47-4.15-16.08-4.2-.82,.03-39.67,3.48-60.31,5.32Z" fill="#2f2e41" data-secondary="true"/>
    </g>
    <g>
      <path d="M535.29,549.49s-1.74,3.48,6.08,6.95l26.94,9.56s6.5-.2,7.16-4.45l-4.55-12.06-15.64-19.99-19.99,19.99Z" fill="#2f2e41" data-secondary="true"/>
      <path d="M568.23,566.5l-.09-.03-26.94-9.56c-3.53-1.57-5.66-3.33-6.35-5.27-.5-1.39-.03-2.34-.01-2.38l.09-.13,20.38-20.38,16.06,20.56,4.6,12.19-.02,.13c-.72,4.6-7.36,4.86-7.64,4.87h-.09Zm-32.52-16.73c-.06,.19-.21,.76,.1,1.58,.43,1.13,1.77,2.86,5.76,4.63l26.81,9.51c.75-.05,5.92-.48,6.57-3.89l-4.48-11.86-15.25-19.48-19.51,19.51Z" fill="#2f2e41" data-secondary="true"/>
    </g>
    <g>
      <path d="M717.02,558.82c1.16,1.6,2.84,2.74,4.71,3.36l19.05,6.35c3,1,6.35,.53,8.81-1.46,3.09-2.51,2.34-5.52,2.34-5.52,0,0-16.77-14.58-35-8.75-1.82,2.19-1.09,4.38,.09,6.02Z" fill="#2f2e41" data-secondary="true"/>
      <path d="M743.92,569.55c-1.09,0-2.2-.18-3.29-.54l-19.05-6.35c-2.03-.67-3.79-1.93-4.96-3.54h0c-1.69-2.36-1.72-4.65-.07-6.63l.09-.11,.14-.04c18.29-5.85,35.31,8.7,35.48,8.85l.12,.1,.04,.15c.03,.14,.79,3.35-2.51,6.03-1.69,1.37-3.8,2.09-5.99,2.09Zm-26.5-11.02c1.05,1.44,2.63,2.57,4.46,3.18l19.05,6.35c2.95,.98,6.06,.47,8.34-1.37,2.44-1.98,2.29-4.27,2.2-4.86-1.59-1.32-17.39-13.88-34.25-8.59-1.25,1.59-1.19,3.37,.2,5.29Z" fill="#2f2e41" data-secondary="true"/>
    </g>
    <g>
      <path d="M709.64,207.16l10.94,8.75,45.21,3.65s22.61,1.46,27.71,34.27c0,0,13.13,56.88,11.67,92.61,0,0,.73,13.86-5.1,18.23,0,0,6.56,6.56,4.38,16.04l-15.31,.73-75.11-.73-26.98,3.65-39.38-74.38s-29.17,60.52-47.4,67.09c0,0-32.09,11.67-28.44-26.25l5.83-28.44s-8.02-3.65-.73-10.94v-7.09c0-.93,.72-1.71,1.65-1.78l26.79-2.06,13.1-36.17c2.49-6.87,5.95-13.35,10.41-19.13,5-6.46,11.79-12.83,18.98-12.48l61.78-25.56Z" fill="#35d087" data-primary="true"/>
      <path d="M686.76,384.9l-39.08-73.82c-3.82,7.8-30.03,60.25-47.25,66.45-.55,.2-13.58,4.82-22.2-1.85-5.74-4.45-8.07-12.83-6.91-24.92l5.77-28.12c-.9-.5-3.18-1.98-3.64-4.54-.39-2.15,.61-4.46,2.98-6.88v-6.89c0-1.19,.93-2.19,2.11-2.28l26.47-2.04,12.99-35.87c2.58-7.12,6.11-13.6,10.49-19.26,6.7-8.65,13.19-12.91,19.29-12.68l61.95-25.63,11.05,8.84,45.06,3.63c.22,.01,23.06,1.86,28.16,34.69,.12,.53,13.12,57.32,11.67,92.71,.03,.52,.64,13.47-4.88,18.27,1.38,1.61,6.05,7.8,4.14,16.1l-.09,.37-15.69,.75-75.14-.73-27.25,3.69Zm-39.12-76.03l39.68,74.95,26.64-3.6,75.18,.73,14.9-.71c1.85-8.89-4.26-15.15-4.32-15.21l-.41-.41,.46-.35c5.56-4.17,4.91-17.67,4.91-17.8,1.44-35.3-11.52-91.96-11.66-92.52-4.99-32.08-27.03-33.87-27.26-33.89l-45.37-3.66-10.83-8.66-61.61,25.49h-.11c-7.21-.37-14.08,6.49-18.57,12.28-4.32,5.58-7.8,11.97-10.34,18.99l-13.21,36.47-27.11,2.09c-.67,.05-1.19,.62-1.19,1.28v7.3l-.15,.15c-2.22,2.22-3.18,4.29-2.85,6.14,.47,2.61,3.41,3.98,3.43,3.99l.36,.17-.08,.39-5.83,28.44c-1.12,11.67,1.07,19.75,6.53,23.97,8.18,6.34,21.12,1.75,21.25,1.71,17.83-6.42,46.83-66.23,47.12-66.83l.43-.89Z" fill="#2f2e41" data-secondary="true"/>
    </g>
    <g>
      <path d="M700.28,195.7l9.37,11.45s1.46,13.13-6.56,28.44c0,0-5.83,8.02-5.83,22.61v13.86h-7.29s-7.29-16.04-16.77-18.23c0,0-3.39-4.57-3.88-9.58l10.45-17.4s13.13-23.33,13.13-24.79c0-1.46,.73-10.94,.73-10.94l6.68,4.59Z" fill="#fff"/>
      <path d="M697.75,272.56h-8.11l-.13-.29c-.07-.16-7.3-15.84-16.43-17.95l-.18-.04-.11-.15c-.14-.19-3.48-4.74-3.98-9.83l-.02-.16,10.53-17.54c4.96-8.82,12.9-23.3,13.06-24.55,0-1.44,.7-10.57,.73-10.96l.07-.87,7.5,5.18,9.46,11.57,.02,.15c.01,.13,1.38,13.45-6.62,28.73-.1,.14-5.78,8.14-5.78,22.37v14.36Zm-7.47-1h6.47v-13.36c0-14.58,5.69-22.57,5.93-22.9,7.37-14.08,6.61-26.48,6.48-27.95l-9.22-11.28-5.9-4.06c-.18,2.37-.66,8.87-.66,10.03,0,1.47-10.1,19.54-13.19,25.04l-10.37,17.27c.48,4.26,3.11,8.22,3.67,9.02,8.92,2.23,15.72,15.92,16.79,18.17Z" fill="#2f2e41" data-secondary="true"/>
    </g>
    <path d="M592.81,327.7c-5.63,0-11.65-1.11-15.51-4.97-.2-.2-.2-.51,0-.71,.2-.2,.51-.2,.71,0,7.29,7.29,22.97,4.19,27.6,3.07,.91-.22,1.71-.55,2.38-.99,1.24-.81,1.98-1.8,2.2-2.93,.36-1.89-.84-3.59-.85-3.61-1.59-2.64-1.43-3.98-1.02-4.65l.14-.23c.23-.36,.44-.7,.59-1.06,.89-2.14,1.02-3.89,.39-5.2-.68-1.4-2.01-1.8-2.02-1.8-.27-.08-.42-.35-.34-.62,.08-.27,.35-.42,.62-.34,.07,.02,1.78,.53,2.65,2.33,.76,1.58,.64,3.6-.37,6.02-.18,.44-.43,.83-.66,1.21l-.14,.22c-.14,.22-.46,1.13,1,3.57,.04,.05,1.43,2.04,1,4.34-.27,1.41-1.15,2.62-2.63,3.58-.76,.5-1.67,.87-2.69,1.12-2.36,.57-7.51,1.64-13.03,1.64Z" fill="#2f2e41" data-secondary="true"/>
    <path d="M606.82,349.85h0c-.28,0-.5-.23-.49-.51l.42-24.48c0-.28,.22-.48,.51-.49,.28,0,.5,.23,.49,.51l-.42,24.48c0,.27-.23,.49-.5,.49Z" fill="#2f2e41" data-secondary="true"/>
    <g>
      <path d="M580.57,305.6s-1.5-.5-2.85-1.5c-.76-.57-.76-1.71,.04-2.23,.68-.44,1.88-.79,4-.75l-1.2,4.48Z" fill="#2f2e41" data-secondary="true"/>
      <path d="M580.92,306.24l-.5-.17c-.06-.02-1.59-.54-2.99-1.58-.5-.37-.79-.96-.77-1.57,.02-.61,.32-1.14,.83-1.47,.9-.59,2.35-.86,4.29-.83h.64s-1.5,5.62-1.5,5.62Zm.2-4.62c-1.73,.04-2.63,.38-3.08,.67-.23,.15-.37,.39-.38,.67,0,.29,.12,.56,.36,.74,.81,.6,1.68,1.01,2.21,1.24l.89-3.31Z" fill="#2f2e41" data-secondary="true"/>
    </g>
    <path d="M647.66,310.48c-.2,0-.39-.12-.47-.32-.07-.17-6.58-16.71-11.53-20.95-.21-.18-.23-.5-.05-.7s.5-.23,.71-.05c5.14,4.41,11.54,20.66,11.81,21.34,.1,.26-.03,.55-.28,.65-.06,.02-.12,.03-.18,.03Z" fill="#2f2e41" data-secondary="true"/>
    <path d="M781.1,376.83c-.21,0-.4-.13-.47-.34-.09-.26,.05-.55,.32-.63,6.42-2.14,19.42-11.5,19.55-11.6,.22-.16,.54-.11,.7,.11s.11,.54-.11,.7c-.54,.39-13.26,9.55-19.82,11.74-.05,.02-.11,.03-.16,.03Z" fill="#2f2e41" data-secondary="true"/>
    <g>
      <path d="M535.36,549.16c13.86-8.02,40.11,12.4,40.11,12.4,3.65-3.65,2.92-13.13,2.92-13.13,.73-18.23,6.56-48.86,6.56-48.86,7.29-30.63,8.02-59.8,8.02-59.8,45.94,15.31,97.71,8.75,97.71,8.75,32.09-4.38,44.48,2.19,44.48,2.19l-4.38,40.84c-2.92,18.96-13.86,61.25-13.86,61.25,18.23-5.83,35,8.75,35,8.75l15.31-40.11c13.13-30.63,18.96-67.82,18.96-67.82,48.86-3.65,18.23-72.92,18.23-72.92l-15.31,.73-3.65-2.92c-20.42-10.94-36.83,2.76-36.83,2.76l-34.64-.58-26.98,3.65-86.78-7.29c-56.15-2.92-54.69,35-54.69,35l-2.19,20.42-5.83,96.99c-1.46,8.75-2.19,19.69-2.19,19.69Z" fill="#2f2e41" data-secondary="true"/>
      <path d="M752.15,562.4l-.54-.47c-.17-.14-16.78-14.33-34.52-8.65l-.86,.28,.23-.88c.11-.42,10.97-42.49,13.85-61.21l4.33-40.46c-2.08-.92-15.04-5.93-43.88-1.99-.52,.07-51.94,6.34-97.3-8.56-.17,4.55-1.4,31.45-8.01,59.23-.05,.28-5.83,30.78-6.55,48.76,.03,.34,.7,9.69-3.06,13.46l-.31,.31-.35-.27c-.26-.2-26.14-20.12-39.55-12.36l-.81,.47,.06-.94c0-.11,.75-11.06,2.19-19.74l5.83-96.93,2.19-20.44c0-.05-.37-12.78,9.9-22.91,9.51-9.39,24.76-13.6,45.32-12.54l86.74,7.29,26.93-3.64,34.53,.57c1.71-1.33,17.79-13.12,37.23-2.7l3.57,2.85,15.47-.74,.14,.31c.72,1.62,17.45,40.03,4.93,60.92-4.5,7.51-12.3,11.77-23.18,12.67-.67,4.07-6.65,38.88-18.93,67.55l-15.56,40.76Zm-209.08-15.63c13.14,0,29.58,12.02,32.34,14.1,3.11-3.66,2.48-12.32,2.48-12.41,.72-18.12,6.51-48.68,6.57-48.99,7.2-30.24,8.01-59.42,8.01-59.71l.02-.68,.64,.21c45.31,15.1,96.98,8.79,97.49,8.73,31.87-4.35,44.27,1.97,44.78,2.24l.3,.16-4.41,41.17c-2.66,17.29-12.08,54.34-13.65,60.46,16.12-4.61,31.07,6.28,34.08,8.66l15.07-39.46c12.96-30.24,18.87-67.34,18.93-67.72l.06-.39,.4-.03c10.74-.8,18.41-4.91,22.79-12.22,11.67-19.47-3.25-55.92-4.85-59.69l-15.16,.72-3.79-3.03c-19.81-10.61-36.03,2.62-36.19,2.76l-.14,.12-34.82-.58-26.96,3.65h-.05s-86.78-7.3-86.78-7.3c-20.25-1.05-35.24,3.07-44.55,12.25-9.96,9.83-9.61,22.11-9.6,22.23l-2.19,20.49-5.83,96.96c-1.2,7.23-1.91,16-2.12,18.79,2.17-1.06,4.6-1.52,7.14-1.52Z" fill="#2f2e41" data-secondary="true"/>
    </g>
    <g opacity=".2">
      <path d="M808.81,425.69c-.24,0-.46-.18-.49-.43-.05-.35-5.24-34.87-19.45-43.4-.24-.14-.31-.45-.17-.69s.45-.31,.69-.17c14.62,8.77,19.72,42.67,19.93,44.11,.04,.27-.15,.53-.42,.57-.02,0-.05,0-.07,0Z"/>
    </g>
    <g opacity=".2">
      <path d="M786.21,454.13s-.02,0-.03,0c-.28-.02-.49-.25-.47-.53,1.44-25.98,4.35-42.91,4.38-43.08,.05-.27,.31-.45,.58-.41,.27,.05,.45,.31,.41,.58-.03,.17-2.93,17.05-4.37,42.97-.01,.27-.24,.47-.5,.47Z"/>
    </g>
    <g opacity=".2">
      <path d="M735.16,451.21s-.03,0-.05,0c-.27-.03-.48-.27-.45-.54l4.38-47.4c.09-.74,2.3-17.81,9.72-22.26,.24-.14,.54-.06,.69,.17,.14,.24,.07,.54-.17,.69-7,4.2-9.22,21.34-9.24,21.51l-4.37,47.38c-.02,.26-.24,.45-.5,.45Z"/>
    </g>
    <g>
      <path d="M775.27,339.14c-3.65,1.46-20.42,4.38-28.44,16.04,0,0-4.38-2.19-7.29,2.19,0,0-8.75,.73-7.29,5.83,0,0,7.49,6.55,11.71,24.73,5.58-.87,12.01-2.23,18.99-4.41,7-2.18,13.07-4.72,18.16-7.19" fill="#35d087" data-primary="true"/>
      <path d="M743.57,388.5l-.1-.45c-4.13-17.77-11.48-24.4-11.55-24.47l-.11-.1-.04-.14c-.35-1.24-.2-2.35,.47-3.31,1.65-2.38,5.95-3.01,7.03-3.13,2.58-3.66,6.19-2.76,7.39-2.33,6.8-9.56,19.44-13.22,25.55-14.99,1.28-.37,2.28-.66,2.89-.9l.37,.93c-.65,.26-1.68,.56-2.98,.93-6.07,1.76-18.69,5.41-25.23,14.93l-.25,.36-.39-.19c-.16-.08-4.02-1.93-6.65,2.02l-.13,.2-.24,.02s-4.95,.44-6.53,2.73c-.47,.68-.59,1.44-.36,2.34,.99,.93,7.66,7.65,11.64,24.44,6.23-.99,12.44-2.44,18.46-4.32,6.18-1.93,12.26-4.34,18.09-7.16l.44,.9c-5.87,2.85-12,5.28-18.23,7.22-6.22,1.94-12.63,3.43-19.06,4.43l-.46,.07Z" fill="#2f2e41" data-secondary="true"/>
    </g>
    <path d="M761.23,376.07c-.22,0-.41-.14-.48-.36-4.44-14.94-14.05-20.03-14.15-20.08-.25-.13-.34-.43-.22-.67s.43-.34,.67-.22c.41,.21,10.08,5.3,14.65,20.68,.08,.26-.07,.54-.34,.62-.05,.01-.1,.02-.14,.02Z" fill="#2f2e41" data-secondary="true"/>
    <path d="M762.87,335.27c-.26,0-.48-.2-.5-.46-1.44-19.44-7.95-60.07-8.02-60.48-.04-.27,.14-.53,.41-.57,.27-.05,.53,.14,.57,.41,.07,.41,6.58,41.08,8.03,60.57,.02,.28-.19,.52-.46,.54-.01,0-.03,0-.04,0Z" fill="#2f2e41" data-secondary="true"/>
    <path d="M716.61,371.35h-.02c-.28-.01-.49-.24-.48-.52,0-.07,.18-6.88-5.59-17.13-2.29-4.06-4.12-7.73-5.6-11.22-3.81-8.96-8.82-22.5-11.09-36.08-.05-.27,.14-.53,.41-.58,.27-.05,.53,.14,.58,.41,2.25,13.48,7.23,26.94,11.02,35.85,1.47,3.45,3.28,7.09,5.55,11.12,5.92,10.52,5.73,17.37,5.72,17.66-.01,.27-.23,.48-.5,.48Z" fill="#2f2e41" data-secondary="true"/>
    <path d="M718.39,252.14c-.13,0-.25-.05-.35-.14-.11-.11-11.29-10.87-18.98-6.26-.24,.14-.54,.06-.69-.17-.14-.24-.07-.54,.17-.69,7.2-4.32,16.64,3.21,19.41,5.68l2.12-34.68c.02-.28,.26-.48,.53-.47,.28,.02,.49,.25,.47,.53l-2.19,35.73c-.01,.19-.14,.37-.32,.44-.06,.02-.12,.03-.18,.03Z" fill="#2f2e41" data-secondary="true"/>
    <g>
      <path d="M693.6,285.91l2.19,55.42s2.5,29.1,13.28,33.15l-3.07,1.86s-8.03,1.78-17.14,1.62c0,0-9.84-6.72-6.92-36.62l2.03-54.97,9.64-.45Z" fill="#fff"/>
      <path d="M690.01,378.46c-.39,0-.77,0-1.16,0h-.15s-.12-.09-.12-.09c-.41-.28-10.05-7.23-7.14-37.08l2.04-55.4,10.6-.5,2.21,55.92c.02,.26,2.59,28.81,12.96,32.7l.97,.36-4.11,2.45c-.08,.02-7.51,1.64-16.1,1.64Zm-.98-1.01c8.41,.12,15.93-1.41,16.78-1.59l2.18-1.32c-10.19-5.27-12.6-32-12.7-33.17l-2.17-54.94-8.68,.41-2.01,54.51c-2.68,27.47,5.55,35.23,6.6,36.1Z" fill="#2f2e41" data-secondary="true"/>
    </g>
    <g>
      <path d="M665.33,255.73c2.35,12.11,14.84,23.69,14.84,23.69-1.03-4.31-.43-7.36-.43-7.36l2.95,.1c-6.53-5.01-9.52-18.33-9.52-18.33l-1.72-2.76s-3.78,.74-6.14,4.67Z" fill="#fff"/>
      <path d="M681.04,280.91l-1.21-1.12c-.51-.48-12.64-11.82-14.99-23.96l-.04-.19,.1-.16c2.44-4.07,6.31-4.87,6.47-4.9l.34-.07,1.96,3.21c.03,.13,3.02,13.2,9.33,18.04l1.24,.95-4.06-.13c-.12,.96-.29,3.49,.48,6.73l.39,1.61Zm-15.19-25.08c1.95,9.59,10.39,18.92,13.5,22.09-.58-3.49-.12-5.84-.1-5.95l.08-.42,1.96,.06c-5.64-5.39-8.31-16.42-8.58-17.59l-1.48-2.38c-.92,.27-3.57,1.29-5.38,4.18Z" fill="#2f2e41" data-secondary="true"/>
    </g>
    <g>
      <path d="M704.59,244.21s-2.97,16.91-7.35,27.85c0,0,.06,4.49-.7,7.35,0,0,12.05-10.16,15.13-32.82,0,0-4.1-2.51-7.08-2.38Z" fill="#fff"/>
      <path d="M695.66,280.81l.41-1.53c.73-2.76,.68-7.17,.68-7.22v-.1s.04-.09,.04-.09c4.31-10.76,7.29-27.58,7.32-27.75l.07-.4,.4-.02c3.09-.14,7.19,2.34,7.36,2.45l.28,.17-.04,.32c-3.06,22.59-15.18,33.03-15.3,33.14l-1.21,1.02Zm2.09-8.66c0,.57,0,3.32-.38,5.77,3.04-3.17,11.26-13.2,13.77-31.07-.9-.51-3.81-2.06-6.12-2.14-.49,2.65-3.32,17.53-7.27,27.44Z" fill="#2f2e41" data-secondary="true"/>
    </g>
    <g>
      <path d="M749.62,559.83l-5.13,17.94c-.38,1.33-.6,2.71-.64,4.1l-.67,21.97s-13.86-26.98-32.81-13.13c0,0,8.48-24.51,11.17-38.87,0,0,11.91-3.23,28.08,7.98Z" fill="#fff"/>
      <path d="M743.63,605.8l-.89-1.72c-.07-.14-7.23-13.85-18-16.4-4.69-1.11-9.43,.05-14.08,3.45l-1.29,.94,.52-1.51c.08-.24,8.5-24.64,11.15-38.8l.06-.31,.3-.08c.5-.13,12.32-3.16,28.5,8.05l.29,.2-5.23,18.29c-.37,1.29-.58,2.63-.62,3.98l-.72,23.91Zm-22.35-19.53c1.23,0,2.46,.15,3.7,.44,9.09,2.15,15.5,11.54,17.76,15.33l.61-20.18c.04-1.43,.26-2.85,.66-4.22l5.03-17.6c-14.26-9.75-25.15-8.15-27.07-7.77-2.34,12.27-8.81,31.77-10.64,37.19,3.29-2.12,6.62-3.19,9.95-3.19Z" fill="#2f2e41" data-secondary="true"/>
    </g>
    <g>
      <path d="M743.19,603.85v10.2c0,1.44-.04,2.87-.12,4.31-.12,2.07-.16,6.39,.85,12.47,0,0,2.92,13.86-5.1,14.58,0,0-5.1,.73-15.31-2.92,0,0-16.77-5.1-27.71,2.92,0,0-6.56-1.46-2.92-10.94,0,0,6.56-10.94,8.75-21.88,0,0,3.65-18.23,8.75-21.88,0,0,15.31-15.31,32.81,13.13Z" fill="#35d087" data-primary="true"/>
      <path d="M737.53,645.98c-2.14,0-6.85-.39-14.2-3.01-.14-.04-16.64-4.93-27.25,2.85l-.18,.13-.22-.05c-.1-.02-2.37-.55-3.62-2.89-1.16-2.17-1.05-5.1,.35-8.72,.1-.19,6.58-11.07,8.73-21.79,.15-.75,3.74-18.47,8.95-22.19,.14-.15,5.08-4.99,12.63-4.1,7.3,.86,14.33,6.7,20.9,17.37l.07,.12v10.34c0,1.51-.04,2.93-.12,4.34-.12,2.02-.16,6.31,.84,12.36,.07,.33,1.77,8.65-1.33,12.84-1.02,1.38-2.44,2.16-4.23,2.32-.05,0-.49,.07-1.33,.07Zm-25.84-5.61c6.41,0,11.57,1.53,11.96,1.65,9.96,3.56,15.05,2.91,15.1,2.9,1.53-.14,2.68-.77,3.54-1.92,2.83-3.83,1.17-11.98,1.15-12.06-1.03-6.17-.98-10.54-.86-12.6,.08-1.39,.12-2.79,.12-4.28v-10.06c-6.38-10.32-13.13-15.97-20.09-16.78-7.08-.83-11.83,3.82-11.87,3.87-4.95,3.54-8.58,21.44-8.61,21.62-2.18,10.9-8.75,21.93-8.81,22.04-1.24,3.25-1.38,5.9-.37,7.79,.83,1.56,2.24,2.16,2.76,2.34,4.9-3.51,10.85-4.5,15.99-4.5Z" fill="#2f2e41" data-secondary="true"/>
    </g>
    <path d="M727.14,599.97c-.09,0-.18-.02-.26-.07-.07-.04-7.13-4.18-13.36-.72-.24,.14-.55,.05-.68-.19-.13-.24-.05-.55,.19-.68,6.74-3.74,14.05,.55,14.35,.74,.24,.14,.31,.45,.17,.69-.09,.16-.26,.24-.43,.24Z" fill="#2f2e41" data-secondary="true"/>
    <path d="M726.41,606.54c-.09,0-.18-.02-.26-.07-.07-.04-7.13-4.18-13.36-.72-.24,.14-.55,.05-.68-.19-.13-.24-.05-.55,.19-.68,6.74-3.74,14.05,.55,14.35,.74,.24,.14,.31,.45,.17,.69-.09,.16-.26,.24-.43,.24Z" fill="#2f2e41" data-secondary="true"/>
    <path d="M725.68,611.64c-.09,0-.18-.02-.26-.07-.07-.04-7.13-4.18-13.36-.72-.24,.13-.55,.05-.68-.19-.13-.24-.05-.55,.19-.68,6.74-3.74,14.05,.55,14.36,.74,.24,.14,.31,.45,.17,.69-.09,.16-.26,.24-.43,.24Z" fill="#2f2e41" data-secondary="true"/>
    <path d="M725.68,616.75c-.09,0-.18-.02-.26-.07-.07-.04-7.13-4.18-13.36-.72-.24,.14-.55,.05-.68-.19-.13-.24-.05-.55,.19-.68,6.74-3.74,14.05,.55,14.36,.74,.24,.14,.31,.45,.17,.69-.09,.16-.26,.24-.43,.24Z" fill="#2f2e41" data-secondary="true"/>
    <g>
      <path d="M541.19,573.95c5.13-1.54,11.35,2.7,14.58,5.35,2.84,2.32,6.21,3.94,9.84,4.47,5.43,.79,8.4-1.06,8.4-1.06l-.08-2.95-.52-19.37c-21.02-15.01-31.58-12.99-31.58-12.99l-.63,26.55Z" fill="#fff"/>
      <path d="M568.26,584.46c-.83,0-1.73-.06-2.72-.2-3.57-.52-7.06-2.11-10.08-4.58-3.17-2.59-9.21-6.73-14.12-5.25l-.66,.2,.66-27.64,.4-.08c.44-.08,11.01-1.9,31.97,13.07l.2,.14,.61,22.85-.24,.15c-.11,.07-2.2,1.34-6.02,1.34Zm-24.75-11.34c4.73,0,9.76,3.47,12.58,5.78,2.88,2.35,6.2,3.86,9.59,4.36,4.3,.63,7.02-.47,7.82-.87l-.58-21.76c-18.2-12.95-28.51-12.96-30.6-12.8l-.61,25.46c.59-.12,1.19-.18,1.8-.18Z" fill="#2f2e41" data-secondary="true"/>
    </g>
    <g>
      <path d="M481.4,622.81c16.3,3.46,34.94,2.23,45.28,1.08,4.24-.47,8.41-1.46,12.42-2.92,7.01-2.54,11.58-2.54,11.58-2.54,26.25,.73,29.17-2.92,29.17-2.92l-.73-23.33c-.66-12.51-4.45-12.54-5.18-12.43l.08,2.95s-2.98,1.86-8.4,1.06c-3.62-.53-7-2.15-9.84-4.47-3.23-2.65-9.44-6.88-14.58-5.35l-26.25,23.33c-11.67,8.02-35,16.77-35,16.77-5.83,3.65-1.46,8.02,1.46,8.75Z" fill="#35d087" data-primary="true"/>
      <path d="M505.91,625.57c-7.9,0-16.55-.56-24.61-2.27h-.02c-1.97-.5-4.31-2.41-4.67-4.63-.2-1.29,.16-3.22,3.06-5.03,.32-.13,23.5-8.87,34.98-16.76l26.29-23.37,.11-.03c5.35-1.6,11.72,2.72,15.04,5.44,2.88,2.35,6.2,3.86,9.59,4.36,4.3,.63,7.02-.47,7.82-.87l-.08-3.08,.43-.07c.34-.05,1.22-.09,2.2,.7,2.03,1.64,3.23,5.74,3.57,12.19l.74,23.53-.12,.14c-.31,.39-3.82,3.82-29.57,3.1-.03,0-4.56,.04-11.4,2.51-4.1,1.48-8.32,2.47-12.53,2.94-5.06,.56-12.52,1.19-20.82,1.19Zm-24.4-3.25c16.4,3.48,35.3,2.16,45.11,1.07,4.14-.46,8.28-1.43,12.31-2.89,7.02-2.54,11.56-2.57,11.75-2.57,22.74,.63,27.85-2.07,28.66-2.64l-.72-23.09c-.4-7.66-1.96-10.46-3.2-11.46-.38-.31-.72-.43-.98-.48l.07,2.71-.24,.15c-.13,.08-3.19,1.95-8.74,1.14-3.57-.52-7.06-2.11-10.08-4.58-3.14-2.58-9.12-6.67-14.01-5.28l-26.17,23.26c-11.63,8-34.92,16.78-35.16,16.87-1.84,1.16-2.74,2.56-2.52,3.98,.28,1.76,2.25,3.39,3.91,3.81Z" fill="#2f2e41" data-secondary="true"/>
    </g>
    <g>
      <line x1="538.28" y1="586.35" x2="532.81" y2="581.61" fill="#fff"/>
      <path d="M538.28,586.85c-.12,0-.23-.04-.33-.12l-5.47-4.74c-.21-.18-.23-.5-.05-.71,.18-.21,.5-.23,.71-.05l5.47,4.74c.21,.18,.23,.5,.05,.71-.1,.11-.24,.17-.38,.17Z" fill="#2f2e41" data-secondary="true"/>
    </g>
    <g>
      <line x1="534.63" y1="590.72" x2="528.43" y2="585.57" fill="#fff"/>
      <path d="M534.63,591.22c-.11,0-.23-.04-.32-.12l-6.2-5.16c-.21-.18-.24-.49-.06-.7,.18-.21,.49-.24,.7-.06l6.2,5.16c.21,.18,.24,.49,.06,.7-.1,.12-.24,.18-.38,.18Z" fill="#2f2e41" data-secondary="true"/>
    </g>
    <g>
      <line x1="528.8" y1="594.37" x2="523.85" y2="589.52" fill="#fff"/>
      <path d="M528.8,594.87c-.13,0-.25-.05-.35-.14l-4.95-4.84c-.2-.19-.2-.51,0-.71,.19-.2,.51-.2,.71,0l4.95,4.84c.2,.19,.2,.51,0,.71-.1,.1-.23,.15-.36,.15Z" fill="#2f2e41" data-secondary="true"/>
    </g>
    <g>
      <line x1="523.69" y1="598.74" x2="519.32" y2="593.64" fill="#fff"/>
      <path d="M523.69,599.24c-.14,0-.28-.06-.38-.17l-4.38-5.1c-.18-.21-.16-.52,.05-.7,.21-.18,.53-.16,.71,.05l4.38,5.1c.18,.21,.16,.52-.05,.7-.09,.08-.21,.12-.33,.12Z" fill="#2f2e41" data-secondary="true"/>
    </g>
    <g>
      <rect x="634.77" y="165.57" width="59.96" height="80.62" rx="29.98" ry="29.98" transform="translate(1311.83 -50.17) rotate(141.2)" fill="#fff"/>
      <path d="M671.25,244.4c-8.92,0-17.77-3.89-23.78-11.37l-12.95-16.11c-10.53-13.1-8.44-32.32,4.66-42.85,6.35-5.1,14.3-7.43,22.39-6.55,8.09,.88,15.36,4.86,20.46,11.2l12.95,16.11c5.1,6.35,7.43,14.3,6.55,22.39-.88,8.09-4.86,15.36-11.2,20.46h0c-5.62,4.52-12.36,6.71-19.07,6.71Zm-13.04-76.06c-6.69,0-13.13,2.26-18.41,6.51-12.67,10.18-14.69,28.78-4.51,41.45l12.95,16.11c10.18,12.67,28.78,14.69,41.45,4.51,12.67-10.18,14.69-28.78,4.51-41.45l-12.95-16.11c-4.93-6.14-11.96-9.99-19.79-10.84-1.08-.12-2.17-.18-3.24-.18Z" fill="#2f2e41" data-secondary="true"/>
    </g>
    <path d="M698.2,178.6s1.24-40.72-32.31-34.15c0,0-15.31-5.83-29.17,8.02,0,0-3.65,5.1-10.94,8.02,0,0,.73,2.19,5.1,2.19,0,0-7.29,4.38-8.75,16.77,0,0-.73,7.29-5.83,10.21,0,0,3.65,2.19,4.38,.73,0,0-5.15,14.6,9.09,16.41,0,0,2.58-2.56,1.12-12.04,0,0,5.83,0,8.02-5.1,0,0,7.29,.73,11.67-6.56,0,0,5.83-1.46,11.67,2.92,0,0,7.29,3.65,14.58,.73,0,0,1.42,7.03,14.2,3.88l7.17-12.02Z" fill="#2f2e41" data-secondary="true"/>
    <g>
      <path d="M606.82,308.52l3.43-41.84c.14-1.75,.6-3.46,1.36-5.04l11.41-24.02c.83-1.75,2.02-3.3,3.5-4.54,5.03-4.21,16.73-14.75,13.85-19.36,0,0,10.94-13.86-.73-10.94,0,0,5.1-11.67-6.56-5.1,0,0,.73-6.56-10.94,0l-8.12,4.87c-1.87,1.12-3.53,2.55-4.92,4.23l-3.8,4.61c-2.84,3.45-4.9,7.49-6.02,11.82l-8.5,32.8-10.21,49.59s7.29,6.56,26.25,2.92Z" fill="#fff"/>
      <path d="M596,310.13c-10.98,0-15.52-3.94-15.76-4.16l-.21-.19,10.27-49.87,8.51-32.83c1.13-4.37,3.25-8.53,6.12-12.01l3.8-4.61c1.42-1.73,3.12-3.19,5.04-4.35l8.12-4.87c5.05-2.84,8.55-3.66,10.4-2.43,.85,.56,1.15,1.4,1.25,2.04,3.41-1.81,5.65-2.15,6.86-1.06,1.55,1.4,.64,4.68,.06,6.3,2.43-.47,3.96-.16,4.67,.94,1.76,2.72-2.97,9.18-4.16,10.73,2.35,4.86-7.78,14.38-14.12,19.69-1.43,1.2-2.56,2.67-3.37,4.37l-11.41,24.02c-.73,1.54-1.17,3.17-1.31,4.87l-3.46,42.21-.37,.07c-4.19,.8-7.81,1.12-10.92,1.12Zm-14.88-4.73c1.33,.99,8.8,5.76,25.23,2.7l3.4-41.46c.15-1.82,.62-3.57,1.4-5.22l11.41-24.02c.87-1.83,2.09-3.42,3.63-4.71,10.45-8.76,15.59-15.75,13.74-18.71l-.19-.3,.22-.28c2.27-2.87,5.44-8.08,4.31-9.83-.52-.81-2.09-.92-4.52-.31l-.99,.25,.41-.93c.53-1.22,1.77-4.94,.54-6.05-.51-.46-2.03-.88-6.4,1.58l-.85,.48,.11-.97c0-.05,.12-1.34-.85-1.98-.85-.56-3.21-.98-9.34,2.47l-8.1,4.86c-1.82,1.09-3.43,2.48-4.79,4.12l-3.8,4.61c-2.78,3.37-4.83,7.4-5.93,11.63l-8.5,32.8-10.14,49.26Z" fill="#2f2e41" data-secondary="true"/>
    </g>
    <g>
      <ellipse cx="695.79" cy="187.83" rx="8.02" ry="9.84" fill="#fff"/>
      <path d="M695.79,198.18c-4.7,0-8.52-4.64-8.52-10.34s3.82-10.34,8.52-10.34,8.52,4.64,8.52,10.34-3.82,10.34-8.52,10.34Zm0-19.69c-4.15,0-7.52,4.19-7.52,9.34s3.37,9.34,7.52,9.34,7.52-4.19,7.52-9.34-3.37-9.34-7.52-9.34Z" fill="#2f2e41" data-secondary="true"/>
    </g>
    <path d="M695.65,190.89c-.06,0-.12-.01-.18-.03-.26-.1-.39-.39-.29-.64l2.19-5.83c.1-.26,.38-.39,.64-.29,.26,.1,.39,.39,.29,.64l-2.19,5.83c-.08,.2-.27,.32-.47,.32Z" fill="#2f2e41" data-secondary="true"/>
    <path d="M614.36,215.45c-.13,0-.27-.05-.37-.16-.19-.2-.17-.52,.03-.71l18.71-17.28c.2-.19,.52-.17,.71,.03,.19,.2,.17,.52-.03,.71l-18.71,17.28c-.1,.09-.22,.13-.34,.13Z" fill="#2f2e41" data-secondary="true"/>
    <path d="M621.31,220.67c-.13,0-.26-.05-.36-.16-.19-.2-.18-.52,.02-.71l18.33-17.39c.2-.19,.52-.18,.71,.02,.19,.2,.18,.52-.02,.71l-18.33,17.39c-.1,.09-.22,.14-.34,.14Z" fill="#2f2e41" data-secondary="true"/>
    <path d="M626.53,225.88c-.14,0-.28-.06-.38-.18-.18-.21-.15-.53,.06-.7l13.84-11.66c.21-.18,.53-.15,.7,.06,.18,.21,.15,.53-.06,.7l-13.84,11.66c-.09,.08-.21,.12-.32,.12Z" fill="#2f2e41" data-secondary="true"/>
    <g>
      <path d="M697.25,272.06h-17.5s-1.46,15.31,8.75,16.04c0,0,8.75,.73,8.75-16.04Z" fill="#2f2e41" data-secondary="true"/>
      <path d="M688.66,288.6c-.12,0-.19,0-.2,0-2.46-.18-4.48-1.18-6.01-2.98-3.99-4.72-3.23-13.24-3.2-13.6l.04-.45h18.46v.5c0,6.97-1.48,11.87-4.39,14.54-2.01,1.85-4.06,2-4.7,2Zm-8.45-16.05c-.1,1.81-.22,8.61,3,12.41,1.35,1.59,3.14,2.47,5.32,2.63,.09,0,2.14,.14,4.18-1.76,2.57-2.39,3.97-6.98,4.03-13.28h-16.53Z" fill="#2f2e41" data-secondary="true"/>
    </g>
    <path d="M661.28,260.64s-.06,0-.09,0c-.19-.03-.34-.17-.39-.35l-6.38-20.66c-.08-.26,.07-.54,.33-.62,.26-.08,.54,.07,.63,.33l6.09,19.74c1.71-2.16,6.68-8.08,9.92-8.5,.28-.03,.52,.16,.56,.43,.04,.27-.16,.52-.43,.56-2.88,.38-8.08,6.54-9.84,8.88-.1,.13-.24,.2-.4,.2Z" fill="#2f2e41" data-secondary="true"/>
    <g>
      <rect x="639.56" y="367.89" width="27.81" height="49.53" rx="2.85" ry="2.85" transform="translate(-86.25 577.07) rotate(-45)" fill="#fff"/>
      <path d="M661.14,419.31c-.9,0-1.74-.35-2.37-.98l-30.99-30.99c-1.31-1.31-1.31-3.43,0-4.74l15.63-15.63c1.27-1.27,3.48-1.27,4.74,0l30.99,30.99c1.31,1.31,1.31,3.43,0,4.74l-15.63,15.63c-.63,.63-1.48,.98-2.37,.98Zm-15.36-52.32c-.63,0-1.22,.24-1.66,.69l-15.63,15.63c-.92,.92-.92,2.41,0,3.33l30.99,30.99c.89,.89,2.44,.89,3.33,0l15.63-15.63c.92-.92,.92-2.41,0-3.33l-30.99-30.99c-.44-.44-1.04-.69-1.66-.69Z" fill="#2f2e41" data-secondary="true"/>
    </g>
    <g>
      <path d="M732.25,363.21l-26.25,13.13s-5.1,1.46-15.31,1.46c0,0-20.51-2.57-28.53,4l5.93,5.48s-13.86,1.46-24.06,1.46c0,0-5.83,.73-3.65,6.56,0,0-3.65,5.1,5.1,5.83,0,0-1.46,5.1,9.48,5.1,0,0,.73,5.1,17.5,5.83h10.94s6.56,0,13.86-3.65l46.71-20.48s-2.23-16.71-11.71-24.73Z" fill="#fff"/>
      <path d="M683.39,412.57h-10.94c-14.4-.63-17.29-4.52-17.86-5.84-4.55-.05-7.55-.99-8.92-2.81-.67-.89-.78-1.79-.76-2.35-2.98-.33-4.84-1.23-5.52-2.7-.69-1.5,.08-3.06,.42-3.64-.63-1.83-.58-3.37,.16-4.6,1.23-2.03,3.86-2.38,3.97-2.39,8.46,0,19.49-1.01,22.97-1.35l-5.53-5.12,.44-.36c8.09-6.62,28.06-4.21,28.91-4.1,9.94,0,15.06-1.43,15.11-1.44l26.46-13.24,.25,.21c9.52,8.05,11.79,24.36,11.88,25.05l.05,.37-47.05,20.63c-7.29,3.65-13.78,3.69-14.06,3.69Zm-39.38-23.33s-2.22,.31-3.18,1.92c-.61,1.01-.6,2.34,0,3.97l.09,.25-.15,.22s-1.08,1.56-.47,2.87c.55,1.18,2.35,1.93,5.21,2.17l.61,.05-.17,.58s-.27,1.04,.53,2.08c.84,1.09,2.99,2.39,8.47,2.39h.43l.06,.43s1.07,4.71,17.03,5.4h10.92c.06,0,6.54-.05,13.63-3.59l46.38-20.34c-.39-2.47-2.98-16.61-11.23-23.83l-25.95,12.98c-.3,.09-5.37,1.51-15.54,1.51-.26-.03-19.69-2.38-27.76,3.53l6.3,5.83-1.1,.12c-.14,.01-14,1.46-24.12,1.46Z" fill="#2f2e41" data-secondary="true"/>
    </g>
    <path d="M668.08,387.77c-.21,0-.4-.13-.47-.33-.09-.26,.04-.55,.3-.64l9.17-3.28c.26-.09,.55,.04,.64,.3,.09,.26-.04,.55-.3,.64l-9.17,3.28c-.06,.02-.11,.03-.17,.03Z" fill="#2f2e41" data-secondary="true"/>
    <path d="M659.95,397.33c-.94,0-1.89-.03-2.84-.08l-16.79-1.46c-.28-.02-.48-.27-.45-.54,.02-.27,.27-.48,.54-.45l16.77,1.46c12.13,.71,23.73-3.57,23.85-3.62,.26-.1,.55,.03,.64,.29,.1,.26-.03,.55-.29,.64-.11,.04-10.17,3.76-21.43,3.76Z" fill="#2f2e41" data-secondary="true"/>
    <path d="M667.04,402.43c-1.66,0-2.63-.08-2.65-.08l-18.94-.73c-.28-.01-.49-.24-.48-.52,.01-.28,.24-.49,.52-.48l18.96,.73c.11,0,8.82,.69,19.54-2.17,.27-.07,.54,.09,.61,.35,.07,.27-.09,.54-.35,.61-7.34,1.96-13.77,2.28-17.21,2.28Z" fill="#2f2e41" data-secondary="true"/>
    <path d="M680.04,407.79c-5.67,0-11.61-.31-11.99-.33l-13.13-.73c-.28-.02-.49-.25-.47-.53,.02-.28,.25-.49,.53-.47l13.13,.73c.14,0,13.88,.72,19.6,0,.27-.03,.52,.16,.56,.43,.03,.27-.16,.52-.43,.56-1.98,.25-4.85,.33-7.79,.33Z" fill="#2f2e41" data-secondary="true"/>
  </g>
  <g>
    <path d="M659.07,204.65c-1.37,0-2.79-.28-4.18-.97-.25-.12-.35-.42-.22-.67,.12-.25,.42-.35,.67-.22,6.11,3.05,13.17-3.11,13.24-3.17,.21-.18,.52-.16,.71,.04,.18,.21,.16,.52-.04,.71-.24,.22-4.91,4.29-10.17,4.29Z" fill="#2f2e41" data-secondary="true"/>
    <path d="M660.48,231.07c-1.06,0-1.96-.29-2.68-.86-1.84-1.46-2.05-4.46-1.89-6.71,.1-1.51-.46-2.99-1.54-4.07l-1.24-1.24c-.2-.2-.2-.51,0-.71,.2-.2,.51-.2,.71,0l1.24,1.24c1.28,1.28,1.95,3.05,1.83,4.84-.14,2.01,.02,4.66,1.52,5.86,.94,.74,2.34,.84,4.17,.28,.26-.08,.54,.07,.62,.33s-.07,.54-.33,.62c-.88,.27-1.68,.4-2.41,.4Z" fill="#2f2e41" data-secondary="true"/>
    <g>
      <ellipse cx="668.1" cy="211.76" rx="2.44" ry="2.84" transform="translate(-4.11 410.06) rotate(-34.02)" fill="#2f2e41" data-secondary="true"/>
      <path d="M668.47,214.98c-.26,0-.54-.04-.81-.11-.8-.22-1.51-.74-2-1.47-.49-.73-.71-1.58-.62-2.4,.1-.85,.52-1.56,1.18-2.01,1.34-.91,3.27-.4,4.3,1.13,1.03,1.53,.78,3.51-.56,4.41-.44,.3-.96,.45-1.5,.45Zm-.74-5.44c-.34,0-.66,.09-.94,.28-.42,.28-.68,.74-.74,1.3-.07,.58,.09,1.2,.45,1.73h0c.36,.53,.87,.91,1.43,1.06,.54,.15,1.06,.07,1.48-.21,.88-.6,1.02-1.95,.29-3.02-.49-.73-1.25-1.14-1.97-1.14Z" fill="#2f2e41" data-secondary="true"/>
    </g>
    <g>
      <ellipse cx="646.18" cy="222.31" rx="2.44" ry="2.84" transform="translate(-13.77 399.61) rotate(-34.02)" fill="#2f2e41" data-secondary="true"/>
      <path d="M646.55,225.53c-1.04,0-2.12-.56-2.8-1.58h0c-1.03-1.53-.78-3.51,.56-4.41,.66-.45,1.48-.57,2.31-.34,.8,.22,1.51,.74,2,1.47,.49,.73,.71,1.58,.62,2.4-.1,.85-.52,1.56-1.18,2.01-.45,.3-.97,.45-1.5,.45Zm-1.98-2.14c.72,1.07,2.03,1.46,2.91,.86,.42-.28,.68-.74,.74-1.3,.07-.58-.09-1.2-.45-1.73-.36-.53-.87-.91-1.43-1.06-.54-.15-1.06-.07-1.48,.21-.88,.6-1.02,1.95-.29,3.02h0Z" fill="#2f2e41" data-secondary="true"/>
    </g>
    <path d="M666.95,238.72c-.44,0-.89-.03-1.35-.08-.27-.03-.47-.28-.43-.56,.03-.27,.28-.46,.56-.43,6.11,.77,10.04-4.61,10.08-4.67,.16-.22,.47-.28,.7-.12s.28,.47,.12,.7c-.16,.23-3.76,5.16-9.67,5.16Z" fill="#2f2e41" data-secondary="true"/>
  </g>
</svg>